<svg width="108" height="22" viewBox="0 0 108 22" fill="none" xmlns="http://www.w3.org/2000/svg">
<path d="M10.6967 21.3567C9.29132 21.3567 7.97266 21.0994 6.74076 20.5848C5.52621 20.053 4.45914 19.324 3.53955 18.3977C2.63731 17.4542 1.92593 16.3563 1.40541 15.1041C0.902238 13.8519 0.650653 12.4967 0.650653 11.0386C0.650653 9.59766 0.902238 8.25965 1.40541 7.02456C1.92593 5.77232 2.63731 4.68304 3.53955 3.75673C4.45914 2.81326 5.52621 2.07563 6.74076 1.54386C7.95531 1.01209 9.27397 0.746199 10.6967 0.746199C12.0327 0.746199 13.1779 0.917739 14.1322 1.26082C15.1038 1.6039 16.0755 2.16998 17.0471 2.95906C17.2553 3.1306 17.3941 3.29357 17.4635 3.44795C17.5329 3.60234 17.5676 3.79103 17.5676 4.01403C17.5676 4.33996 17.4462 4.61442 17.2033 4.83743C16.9777 5.04327 16.7001 5.16335 16.3704 5.19766C16.0408 5.21481 15.7198 5.10331 15.4075 4.86316C14.7655 4.31423 14.0975 3.89396 13.4034 3.60234C12.7268 3.31072 11.8245 3.16491 10.6967 3.16491C9.67303 3.16491 8.71007 3.37076 7.80783 3.78246C6.90559 4.19415 6.10746 4.76023 5.41343 5.4807C4.73675 6.20117 4.20755 7.04172 3.82584 8.00234C3.44412 8.94581 3.25326 9.9579 3.25326 11.0386C3.25326 12.1365 3.44412 13.1657 3.82584 14.1263C4.20755 15.0698 4.73675 15.9018 5.41343 16.6222C6.10746 17.3427 6.90559 17.9088 7.80783 18.3205C8.71007 18.715 9.67303 18.9123 10.6967 18.9123C11.5816 18.9123 12.4145 18.7665 13.1952 18.4749C13.9934 18.1661 14.7568 17.7458 15.4855 17.214C15.7978 16.991 16.1015 16.8967 16.3964 16.931C16.7088 16.9481 16.969 17.0682 17.1772 17.2912C17.3854 17.4971 17.4895 17.7887 17.4895 18.1661C17.4895 18.5263 17.3507 18.8437 17.0731 19.1181C15.1992 20.6105 13.0738 21.3567 10.6967 21.3567Z" fill="#17494D"/>
<path d="M31.8649 21.3567C30.338 21.3567 28.9413 21.108 27.6747 20.6105C26.4081 20.0959 25.315 19.384 24.3954 18.4749C23.4932 17.5485 22.7905 16.4593 22.2873 15.207C21.7841 13.9376 21.5325 12.5481 21.5325 11.0386C21.5325 9.52905 21.7841 8.14815 22.2873 6.89591C22.7905 5.64366 23.4932 4.56296 24.3954 3.6538C25.315 2.72748 26.4081 2.01559 27.6747 1.51813C28.9413 1.00351 30.338 0.746199 31.8649 0.746199C33.3918 0.746199 34.7798 1.00351 36.0291 1.51813C37.2957 2.01559 38.3888 2.72748 39.3084 3.6538C40.228 4.56296 40.9393 5.64366 41.4425 6.89591C41.9457 8.14815 42.1973 9.52905 42.1973 11.0386C42.1973 12.5481 41.9457 13.9376 41.4425 15.207C40.9393 16.4593 40.228 17.5485 39.3084 18.4749C38.3888 19.384 37.2957 20.0959 36.0291 20.6105C34.7798 21.108 33.3918 21.3567 31.8649 21.3567ZM31.8649 18.938C33.3744 18.938 34.7104 18.5949 35.8729 17.9088C37.0354 17.2055 37.9463 16.262 38.6057 15.0784C39.265 13.8776 39.5947 12.531 39.5947 11.0386C39.5947 9.5462 39.265 8.20819 38.6057 7.02456C37.9463 5.82378 37.0354 4.88031 35.8729 4.19415C34.7104 3.50799 33.3744 3.16491 31.8649 3.16491C30.3554 3.16491 29.0194 3.50799 27.8569 4.19415C26.6944 4.88031 25.7835 5.82378 25.1241 7.02456C24.4648 8.20819 24.1351 9.5462 24.1351 11.0386C24.1351 12.531 24.4648 13.8776 25.1241 15.0784C25.7835 16.262 26.6944 17.2055 27.8569 17.9088C29.0194 18.5949 30.3554 18.938 31.8649 18.938Z" fill="#17494D"/>
<path d="M48.4409 21.0994C48.0592 21.0994 47.7382 20.9708 47.4779 20.7135C47.2177 20.4561 47.0875 20.1388 47.0875 19.7614V2.34152C47.0875 1.94698 47.2177 1.62963 47.4779 1.38947C47.7382 1.13216 48.0592 1.00351 48.4409 1.00351H53.1256C54.4269 1.00351 55.5807 1.27797 56.5871 1.8269C57.5934 2.35867 58.3742 3.0963 58.9294 4.03977C59.502 4.98323 59.7883 6.08109 59.7883 7.33333C59.7883 8.56842 59.4759 9.6577 58.8513 10.6012C58.2267 11.5275 57.3765 12.2308 56.3008 12.7111L60.2828 19.0409C60.5951 19.5384 60.6385 20.0101 60.4129 20.4561C60.1873 20.885 59.7969 21.0994 59.2417 21.0994C58.7385 21.0994 58.3482 20.885 58.0705 20.4561L53.5941 13.3544C53.4379 13.3544 53.2817 13.3544 53.1256 13.3544H49.7942V19.7614C49.7942 20.1388 49.6641 20.4561 49.4039 20.7135C49.1609 20.9708 48.84 21.0994 48.4409 21.0994ZM49.7942 10.8842H53.1256C54.3054 10.8842 55.2771 10.5583 56.0405 9.90643C56.8039 9.23743 57.1857 8.37973 57.1857 7.33333C57.1857 6.20117 56.8039 5.27485 56.0405 4.55439C55.2771 3.83392 54.3054 3.47368 53.1256 3.47368H49.7942V10.8842Z" fill="#17494D"/>
<path d="M65.9782 21.0994C65.4924 21.0994 65.1193 20.8936 64.8591 20.4819C64.5988 20.0702 64.5728 19.6327 64.781 19.1696L72.0943 1.90409C72.3546 1.3037 72.7797 1.00351 73.3696 1.00351C73.9942 1.00351 74.4193 1.3037 74.6449 1.90409L81.9843 19.2211C82.1751 19.7014 82.1404 20.1388 81.8801 20.5333C81.6372 20.9107 81.2642 21.0994 80.761 21.0994C80.5008 21.0994 80.2492 21.0308 80.0063 20.8936C79.7807 20.7392 79.6159 20.5333 79.5118 20.276L78.0543 16.6737H68.7109L67.2275 20.276C67.106 20.5505 66.9238 20.7563 66.6809 20.8936C66.4554 21.0308 66.2211 21.0994 65.9782 21.0994ZM69.6219 14.4608H77.1434L73.4217 5.30058L69.6219 14.4608Z" fill="#17494D"/>
<path d="M86.49 8.18246C86.2124 8.18246 85.9955 8.06238 85.8394 7.82222C85.7006 7.56491 85.6919 7.29902 85.8134 7.02456C86.1257 6.32125 86.3165 5.74659 86.3859 5.30058C86.4553 4.85458 86.4553 4.46862 86.3859 4.14269C86.3339 3.81676 86.2645 3.50799 86.1777 3.21637C86.091 2.9076 86.0476 2.56452 86.0476 2.18713C86.0476 1.74113 86.2037 1.37232 86.5161 1.0807C86.8284 0.789083 87.2014 0.643275 87.6352 0.643275C88.173 0.643275 88.5895 0.866276 88.8844 1.31228C89.1794 1.75828 89.3269 2.31579 89.3269 2.98479C89.3269 3.4308 89.2315 3.94542 89.0406 4.52865C88.8497 5.11189 88.6068 5.68655 88.3119 6.25263C88.0342 6.80156 87.7306 7.26472 87.4009 7.64211C87.0713 8.00234 86.7676 8.18246 86.49 8.18246Z" fill="#17494D"/>
<path d="M95.2212 21.0994C94.8395 21.0994 94.5185 20.9708 94.2582 20.7135C94.0153 20.4561 93.8938 20.1388 93.8938 19.7614V2.34152C93.8938 1.96413 94.024 1.64678 94.2842 1.38947C94.5445 1.13216 94.8568 1.00351 95.2212 1.00351C95.6029 1.00351 95.9239 1.13216 96.1841 1.38947C96.4444 1.64678 96.5745 1.96413 96.5745 2.34152V18.4234H105.996C106.378 18.4234 106.699 18.552 106.959 18.8094C107.219 19.0667 107.349 19.384 107.349 19.7614C107.349 20.1388 107.219 20.4561 106.959 20.7135C106.699 20.9708 106.378 21.0994 105.996 21.0994H95.2212Z" fill="#17494D"/>
<path fill-rule="evenodd" clip-rule="evenodd" d="M6.47729 21.173C5.1885 20.6087 4.05304 19.8333 3.07519 18.8483L3.06667 18.8397C2.1072 17.8364 1.35318 16.6708 0.803595 15.3486L0.800682 15.3416C0.264729 14.0078 0 12.5713 0 11.0386C0 9.52212 0.265105 8.10178 0.801874 6.78423L0.80358 6.78004C1.35358 5.45689 2.10884 4.29822 3.07087 3.31052C4.04903 2.30697 5.18594 1.52108 6.47729 0.955681L6.74076 1.54386C5.52621 2.07563 4.45914 2.81326 3.53955 3.75673C2.63731 4.68304 1.92593 5.77232 1.40541 7.02456C0.902238 8.25965 0.650653 9.59766 0.650653 11.0386C0.650653 12.4967 0.902238 13.8519 1.40541 15.1041C1.92593 16.3563 2.63731 17.4542 3.53955 18.3977C4.45914 19.324 5.52621 20.053 6.74076 20.5848C7.97266 21.0994 9.29132 21.3567 10.6967 21.3567C13.0738 21.3567 15.1992 20.6105 17.0731 19.1181C17.3507 18.8437 17.4895 18.5263 17.4895 18.1661C17.4895 17.7887 17.3854 17.4971 17.1772 17.2912C16.969 17.0682 16.7088 16.9481 16.3964 16.931C16.1015 16.8967 15.7978 16.991 15.4855 17.214C14.7568 17.7458 13.9934 18.1661 13.1952 18.4749C12.4145 18.7665 11.5816 18.9123 10.6967 18.9123C9.67303 18.9123 8.71007 18.715 7.80783 18.3205C6.90559 17.9088 6.10746 17.3427 5.41343 16.6222C4.73675 15.9018 4.20755 15.0698 3.82584 14.1263C3.44412 13.1657 3.25326 12.1365 3.25326 11.0386C3.25326 9.9579 3.44412 8.94581 3.82584 8.00234C4.20755 7.04172 4.73675 6.20117 5.41343 5.4807C6.10746 4.76023 6.90559 4.19415 7.80783 3.78246C8.71007 3.37076 9.67303 3.16491 10.6967 3.16491C11.8245 3.16491 12.7268 3.31072 13.4034 3.60234C14.0975 3.89396 14.7655 4.31423 15.4075 4.86316C15.7198 5.10331 16.0408 5.21481 16.3704 5.19766C16.7001 5.16335 16.9777 5.04327 17.2033 4.83743C17.4462 4.61442 17.5676 4.33996 17.5676 4.01403C17.5676 3.79103 17.5329 3.60234 17.4635 3.44795C17.3941 3.29357 17.2553 3.1306 17.0471 2.95906C16.0755 2.16998 15.1038 1.6039 14.1322 1.26082C13.1779 0.917739 12.0327 0.746199 10.6967 0.746199C9.27397 0.746199 7.95531 1.01209 6.74076 1.54386L6.47729 0.955681C7.78061 0.385045 9.18977 0.102924 10.6967 0.102924C12.0852 0.102924 13.3091 0.280712 14.3528 0.655641C15.4079 1.02847 16.4434 1.63629 17.4601 2.46199L17.4636 2.46487C17.7083 2.66644 17.9313 2.90457 18.0581 3.18669C18.1743 3.44515 18.2183 3.72845 18.2183 4.01403C18.2183 4.51996 18.0207 4.96486 17.646 5.30881L17.6446 5.31011C17.3077 5.61758 16.8958 5.78982 16.4385 5.8374L16.4216 5.83916L16.4046 5.84005C15.889 5.86687 15.4181 5.68628 15.008 5.37093L14.9946 5.36065L14.9818 5.34971C14.3847 4.8391 13.7735 4.45678 13.1489 4.19437L13.1434 4.19205C12.5804 3.94942 11.7776 3.80819 10.6967 3.80819C9.76426 3.80819 8.89463 3.99503 8.08049 4.36652C7.25498 4.74321 6.52492 5.26034 5.88743 5.92139C5.27017 6.57936 4.78437 7.34936 4.43143 8.23755L4.42996 8.24125C4.0809 9.104 3.90392 10.0345 3.90392 11.0386C3.90392 12.0604 4.0811 13.0088 4.4307 13.8893C4.78312 14.7597 5.26878 15.5221 5.88741 16.1815C6.52367 16.8413 7.25217 17.3577 8.07574 17.7342C8.89059 18.0898 9.76199 18.269 10.6967 18.269C11.5065 18.269 12.2598 18.1361 12.9617 17.8744C13.7025 17.5875 14.4148 17.1958 15.0991 16.6965L15.1046 16.6925C15.503 16.408 15.9596 16.2386 16.4521 16.2899C16.9173 16.3199 17.3271 16.5079 17.6467 16.8457C18.0031 17.2038 18.1402 17.6751 18.1402 18.1661C18.1402 18.711 17.9224 19.1882 17.5332 19.573L17.5085 19.5974L17.4813 19.6191C15.4933 21.2024 13.2243 22 10.6967 22C9.20883 22 7.8036 21.7271 6.48752 21.1773L6.47729 21.173ZM27.4274 21.2055C26.0855 20.6603 24.919 19.9022 23.9353 18.9297L23.9266 18.9211C22.963 17.9318 22.2155 16.7706 21.6826 15.4445L21.6815 15.4417C21.1457 14.0899 20.8819 12.6199 20.8819 11.0386C20.8819 9.45747 21.1456 7.9948 21.6826 6.65841C22.2159 5.33133 22.9646 4.17702 23.931 3.20329C24.9156 2.21141 26.0848 1.45091 27.4309 0.921696C28.7836 0.372694 30.2643 0.102924 31.8649 0.102924C33.4647 0.102924 34.9375 0.372444 36.2743 0.922266C37.6188 1.45107 38.7867 2.21057 39.7706 3.20104C40.7548 4.17468 41.5133 5.32967 42.0472 6.65841C42.5842 7.9948 42.8479 9.45747 42.8479 11.0386C42.8479 12.6199 42.5841 14.0899 42.0483 15.4417L42.0472 15.4445C41.5133 16.7732 40.7553 17.9357 39.7727 18.9254L39.7685 18.9297C38.7848 19.9022 37.6183 20.6603 36.2764 21.2055L36.2722 21.2072C34.936 21.7393 33.464 22 31.8649 22C30.2656 22 28.7862 21.7392 27.4345 21.2084L27.4274 21.2055ZM39.3084 3.6538C38.3888 2.72748 37.2957 2.01559 36.0291 1.51813C34.7798 1.00351 33.3918 0.746199 31.8649 0.746199C30.338 0.746199 28.9413 1.00351 27.6747 1.51813C26.4081 2.01559 25.315 2.72748 24.3954 3.6538C23.4932 4.56296 22.7905 5.64366 22.2873 6.89591C21.7841 8.14815 21.5325 9.52905 21.5325 11.0386C21.5325 12.5481 21.7841 13.9376 22.2873 15.207C22.7905 16.4593 23.4932 17.5485 24.3954 18.4749C25.315 19.384 26.4081 20.0959 27.6747 20.6105C28.9413 21.108 30.338 21.3567 31.8649 21.3567C33.3918 21.3567 34.7798 21.108 36.0291 20.6105C37.2957 20.0959 38.3888 19.384 39.3084 18.4749C40.228 17.5485 40.9393 16.4593 41.4425 15.207C41.9457 13.9376 42.1973 12.5481 42.1973 11.0386C42.1973 9.52905 41.9457 8.14815 41.4425 6.89591C40.9393 5.64366 40.228 4.56296 39.3084 3.6538ZM38.0357 7.33488L38.0338 7.33147C37.429 6.22994 36.5995 5.37218 35.5394 4.74648C34.489 4.12649 33.2708 3.80819 31.8649 3.80819C30.459 3.80819 29.2408 4.12649 28.1904 4.74648C27.1303 5.37218 26.3008 6.22994 25.696 7.33146L25.6941 7.33489C25.0931 8.4138 24.7858 9.64313 24.7858 11.0386C24.7858 12.4332 25.0927 13.6721 25.695 14.7698C26.2993 15.8539 27.1296 16.7139 28.1934 17.3582C29.2431 17.977 30.4603 18.2947 31.8649 18.2947C33.2695 18.2947 34.4867 17.977 35.5364 17.3582C36.6001 16.7139 37.4305 15.8539 38.0348 14.7698C38.6371 13.6721 38.944 12.4332 38.944 11.0386C38.944 9.64313 38.6367 8.4138 38.0357 7.33488ZM38.6057 15.0784C37.9463 16.262 37.0354 17.2055 35.8729 17.9088C34.7104 18.5949 33.3744 18.938 31.8649 18.938C30.3554 18.938 29.0194 18.5949 27.8569 17.9088C26.6944 17.2055 25.7835 16.262 25.1241 15.0784C24.4648 13.8776 24.1351 12.531 24.1351 11.0386C24.1351 9.5462 24.4648 8.20819 25.1241 7.02456C25.7835 5.82378 26.6944 4.88031 27.8569 4.19415C29.0194 3.50799 30.3554 3.16491 31.8649 3.16491C33.3744 3.16491 34.7104 3.50799 35.8729 4.19415C37.0354 4.88031 37.9463 5.82378 38.6057 7.02456C39.265 8.20819 39.5947 9.5462 39.5947 11.0386C39.5947 12.531 39.265 13.8776 38.6057 15.0784ZM58.0705 20.4561L53.5941 13.3544H49.7942V19.7614C49.7942 20.1388 49.6641 20.4561 49.4039 20.7135C49.1609 20.9708 48.84 21.0994 48.4409 21.0994C48.0592 21.0994 47.7382 20.9708 47.4779 20.7135C47.2177 20.4561 47.0875 20.1388 47.0875 19.7614V2.34152C47.0875 1.94698 47.2177 1.62963 47.4779 1.38947C47.7382 1.13216 48.0592 1.00351 48.4409 1.00351H53.1256C54.4269 1.00351 55.5807 1.27797 56.5871 1.8269C57.5934 2.35867 58.3742 3.0963 58.9294 4.03977C59.502 4.98323 59.7883 6.08109 59.7883 7.33333C59.7883 8.56842 59.4759 9.6577 58.8513 10.6012C58.3438 11.3538 57.6875 11.9592 56.8822 12.4174C56.6963 12.5231 56.5025 12.621 56.3008 12.7111L60.2828 19.0409C60.5951 19.5384 60.6385 20.0101 60.4129 20.4561C60.1873 20.885 59.7969 21.0994 59.2417 21.0994C58.7385 21.0994 58.3482 20.885 58.0705 20.4561ZM57.226 12.9639L60.8353 18.7012C61.2424 19.3496 61.3405 20.0603 60.9949 20.7438L60.9902 20.753C60.8244 21.0683 60.5842 21.3267 60.2669 21.5009C59.9542 21.6727 59.6034 21.7427 59.2417 21.7427C58.5104 21.7427 57.9163 21.4112 57.5225 20.8029L57.5183 20.7964L53.2329 13.9977H50.4449V19.7614C50.4449 20.2987 50.2538 20.7789 49.8718 21.1605C49.4912 21.559 48.9924 21.7427 48.4409 21.7427C47.8937 21.7427 47.4051 21.5512 47.0178 21.1683C46.6306 20.7855 46.4369 20.3023 46.4369 19.7614V2.34152C46.4369 1.79621 46.6227 1.30309 47.0257 0.92687C47.4117 0.549175 47.8974 0.360234 48.4409 0.360234H53.1256C54.5204 0.360234 55.7837 0.654926 56.8975 1.26154C58.0034 1.84673 58.8723 2.66521 59.4895 3.71236C60.1293 4.76819 60.4389 5.98245 60.4389 7.33333C60.4389 8.68116 60.0962 9.89536 59.3957 10.9535L59.3927 10.958C58.8313 11.7906 58.106 12.4595 57.226 12.9639ZM50.4449 10.2409H53.1256C54.1754 10.2409 54.9868 9.9548 55.612 9.42232C56.2282 8.88096 56.535 8.20207 56.535 7.33333C56.535 6.36036 56.2144 5.60778 55.5912 5.0197C54.9635 4.42729 54.1595 4.11696 53.1256 4.11696H50.4449V10.2409ZM49.7942 10.8842V3.47368H53.1256C54.3054 3.47368 55.2771 3.83392 56.0405 4.55439C56.8039 5.27485 57.1857 6.20117 57.1857 7.33333C57.1857 8.37973 56.8039 9.23743 56.0405 9.90643C55.2771 10.5583 54.3054 10.8842 53.1256 10.8842H49.7942ZM72.0943 1.90409C72.3546 1.3037 72.7797 1.00351 73.3696 1.00351C73.9942 1.00351 74.4193 1.3037 74.6449 1.90409L81.9843 19.2211C82.1751 19.7014 82.1404 20.1388 81.8801 20.5333C81.6372 20.9107 81.2642 21.0994 80.761 21.0994C80.5008 21.0994 80.2492 21.0308 80.0063 20.8936C79.7807 20.7392 79.6159 20.5333 79.5118 20.276L78.0543 16.6737H68.7109L67.2275 20.276C67.106 20.5505 66.9238 20.7563 66.6809 20.8936C66.4554 21.0308 66.2211 21.0994 65.9782 21.0994C65.4924 21.0994 65.1193 20.8936 64.8591 20.4819C64.5988 20.0702 64.5728 19.6327 64.781 19.1696L72.0943 1.90409ZM64.1834 18.915L71.4963 1.65069C71.6611 1.27061 71.8982 0.939663 72.2302 0.7052C72.5671 0.467301 72.9573 0.360234 73.3696 0.360234C73.7904 0.360234 74.192 0.462895 74.5351 0.7052C74.8725 0.943484 75.1025 1.28084 75.2498 1.6669L82.59 18.9858C82.8489 19.6373 82.8128 20.2955 82.4268 20.8823C82.0493 21.4662 81.4557 21.7427 80.761 21.7427C80.3791 21.7427 80.0171 21.6406 79.6835 21.4521L79.659 21.4383L79.6359 21.4225C79.3029 21.1945 79.0581 20.8868 78.9077 20.5149L77.6138 17.317H69.1486L67.8238 20.5339C67.6526 20.9207 67.3828 21.2352 67.0131 21.4468C66.6969 21.6372 66.3489 21.7427 65.9782 21.7427C65.2651 21.7427 64.6849 21.4201 64.3073 20.8228C63.9279 20.2226 63.8953 19.5611 64.1834 18.915ZM77.1434 14.4608L73.4217 5.30058L69.6219 14.4608H77.1434ZM70.5919 13.8175H76.1809L73.4154 7.01099L70.5919 13.8175ZM85.2777 8.14805L85.2653 8.12494C85.0298 7.68849 85.0185 7.21579 85.2172 6.76672C85.5203 6.08423 85.686 5.56801 85.7428 5.20277C85.8043 4.80789 85.7979 4.50373 85.7492 4.27521L85.7458 4.25919L85.7432 4.24302C85.6952 3.94221 85.6317 3.66072 85.5535 3.39788L85.5507 3.38856C85.4458 3.01481 85.3969 2.61269 85.3969 2.18713C85.3969 1.57411 85.6197 1.03285 86.0693 0.613031C86.5037 0.207418 87.0371 0 87.6352 0C88.3932 0 89.0142 0.332983 89.429 0.960248C89.8089 1.53474 89.9775 2.22263 89.9775 2.98479C89.9775 3.51792 89.8642 4.10163 89.6597 4.72667C89.4579 5.34305 89.2019 5.94866 88.8923 6.54335C88.5962 7.12825 88.2647 7.63748 87.8934 8.06256L87.8836 8.0738C87.5193 8.47184 87.0516 8.82573 86.49 8.82573C85.9805 8.82573 85.5621 8.58542 85.2921 8.17008L85.2777 8.14805ZM88.3119 6.25263C88.6068 5.68655 88.8497 5.11189 89.0406 4.52865C89.2315 3.94542 89.3269 3.4308 89.3269 2.98479C89.3269 2.31579 89.1794 1.75828 88.8844 1.31228C88.5895 0.866276 88.173 0.643275 87.6352 0.643275C87.2014 0.643275 86.8284 0.789083 86.5161 1.0807C86.2037 1.37232 86.0476 1.74113 86.0476 2.18713C86.0476 2.56452 86.091 2.9076 86.1777 3.21637C86.2645 3.50799 86.3339 3.81676 86.3859 4.14269C86.4553 4.46862 86.4553 4.85458 86.3859 5.30058C86.3165 5.74659 86.1257 6.32125 85.8134 7.02456C85.6919 7.29902 85.7006 7.56491 85.8394 7.82222C85.9955 8.06238 86.2124 8.18246 86.49 8.18246C86.7676 8.18246 87.0713 8.00234 87.4009 7.64211C87.7306 7.26472 88.0342 6.80156 88.3119 6.25263ZM93.7902 21.1605L93.7826 21.1524C93.4186 20.7668 93.2432 20.2888 93.2432 19.7614V2.34152C93.2432 1.80059 93.4369 1.31746 93.8242 0.934609C94.205 0.558039 94.6823 0.360234 95.2212 0.360234C95.7683 0.360234 96.257 0.551756 96.6442 0.934609C97.0315 1.31746 97.2252 1.80059 97.2252 2.34152V17.7801H105.996C106.543 17.7801 107.032 17.9716 107.419 18.3545C107.806 18.7373 108 19.2205 108 19.7614C108 20.3023 107.806 20.7855 107.419 21.1683C107.032 21.5512 106.543 21.7427 105.996 21.7427H95.2212C94.674 21.7427 94.1854 21.5512 93.7981 21.1683L93.7902 21.1605ZM96.5745 18.4234V2.34152C96.5745 1.96413 96.4444 1.64678 96.1841 1.38947C95.9239 1.13216 95.6029 1.00351 95.2212 1.00351C94.8568 1.00351 94.5445 1.13216 94.2842 1.38947C94.024 1.64678 93.8938 1.96413 93.8938 2.34152V19.7614C93.8938 20.1388 94.0153 20.4561 94.2582 20.7135C94.5185 20.9708 94.8395 21.0994 95.2212 21.0994H105.996C106.378 21.0994 106.699 20.9708 106.959 20.7135C107.219 20.4561 107.349 20.1388 107.349 19.7614C107.349 19.384 107.219 19.0667 106.959 18.8094C106.699 18.552 106.378 18.4234 105.996 18.4234H96.5745Z" fill="#17494D"/>
</svg>
